<?xml version="1.0" encoding="utf-8"?>
<!-- Generator: Adobe Illustrator 23.0.2, SVG Export Plug-In . SVG Version: 6.00 Build 0)  -->
<svg version="1.1" id="Layer_1" xmlns="http://www.w3.org/2000/svg" xmlns:xlink="http://www.w3.org/1999/xlink" x="0px" y="0px"
	 viewBox="0 0 231.5 93.5" style="enable-background:new 0 0 231.5 93.5;" xml:space="preserve">
<style type="text/css">
	.st0{fill:#FFFFFF;}
	.st1{fill:none;stroke:#000000;stroke-width:8;stroke-miterlimit:10;}
	.st2{fill:none;stroke:#000000;stroke-width:16;stroke-miterlimit:10;}
	.st3{font-family:'OpenSans-Bold';}
	.st4{font-size:46px;}
</style>
<rect x="-2.2" y="-2.2" class="st0" width="236" height="98"/>
<polygon class="st1" points="66.1,57.8 33.8,81.8 35.9,57.8 "/>
<rect x="46.5" y="27.5" transform="matrix(6.123234e-17 -1 1 6.123234e-17 -9.25 108.7537)" class="st0" width="6.5" height="63"/>
<g>
	<path class="st2" d="M65.8,50.8h-38c-9.9,0-18-8.1-18-18v0c0-9.9,8.1-18,18-18h38c9.9,0,18,8.1,18,18v0
		C83.8,42.7,75.7,50.8,65.8,50.8z"/>
	<rect x="44.8" y="4.8" class="st0" width="4" height="56"/>
</g>
<text transform="matrix(1 0 0 1 98.6395 46.3261)"><tspan x="0" y="0" class="st3 st4">Class</tspan><tspan x="0" y="38" class="st3 st4">Chats</tspan></text>
</svg>
