<svg width="874" height="342" viewBox="0 0 874 342" fill="none" xmlns="http://www.w3.org/2000/svg">
<g clip-path="url(#clip0)">
<path d="M409.11 205.745C398.515 205.745 390.311 209.741 384.498 217.733C378.686 225.665 375.779 236.745 375.779 250.974C375.779 280.581 386.89 295.385 409.11 295.385C418.435 295.385 429.727 293.054 442.986 288.392V312.005C432.088 316.546 419.918 318.816 406.477 318.816C387.162 318.816 372.389 312.974 362.156 301.288C351.924 289.542 346.808 272.71 346.808 250.792C346.808 236.987 349.32 224.908 354.346 214.555C359.371 204.141 366.576 196.179 375.961 190.669C385.406 185.099 396.456 182.313 409.11 182.313C422.007 182.313 434.964 185.432 447.981 191.668L438.899 214.555C433.935 212.193 428.939 210.135 423.914 208.379C418.889 206.623 413.954 205.745 409.11 205.745ZM562.869 317H535.169V257.694C535.169 243.042 529.72 235.716 518.821 235.716C511.071 235.716 505.471 238.35 502.02 243.617C498.568 248.885 496.843 257.422 496.843 269.229V317H469.143V175.684H496.843V204.474C496.843 206.714 496.631 211.981 496.207 220.276L495.571 228.45H497.024C503.2 218.521 513.009 213.556 526.45 213.556C538.378 213.556 547.43 216.765 553.605 223.183C559.781 229.601 562.869 238.804 562.869 250.792V317ZM655.869 317L650.511 303.195H649.784C645.122 309.068 640.309 313.155 635.344 315.456C630.439 317.696 624.021 318.816 616.09 318.816C606.342 318.816 598.652 316.031 593.021 310.461C587.451 304.891 584.666 296.959 584.666 286.666C584.666 275.889 588.42 267.957 595.928 262.871C603.496 257.725 614.879 254.879 630.076 254.334L647.695 253.789V249.339C647.695 239.046 642.428 233.899 631.893 233.899C623.779 233.899 614.243 236.352 603.284 241.256L594.111 222.547C605.797 216.432 618.754 213.374 632.982 213.374C646.605 213.374 657.05 216.341 664.315 222.274C671.581 228.208 675.214 237.229 675.214 249.339V317H655.869ZM647.695 269.955L636.979 270.318C628.926 270.561 622.932 272.014 618.996 274.678C615.061 277.342 613.093 281.398 613.093 286.848C613.093 294.658 617.573 298.563 626.534 298.563C632.952 298.563 638.068 296.717 641.883 293.023C645.758 289.33 647.695 284.426 647.695 278.311V269.955ZM746.599 296.747C751.442 296.747 757.255 295.688 764.036 293.568V314.185C757.134 317.272 748.657 318.816 738.606 318.816C727.526 318.816 719.443 316.031 714.357 310.461C709.332 304.83 706.819 296.414 706.819 285.213V236.261H693.56V224.545L708.817 215.281L716.81 193.848H734.52V215.463H762.946V236.261H734.52V285.213C734.52 289.148 735.609 292.055 737.789 293.932C740.029 295.809 742.966 296.747 746.599 296.747ZM855.492 286.848C855.492 297.262 851.859 305.193 844.594 310.643C837.389 316.092 826.581 318.816 812.171 318.816C804.784 318.816 798.487 318.302 793.28 317.272C788.073 316.304 783.199 314.851 778.658 312.913V290.026C783.805 292.448 789.587 294.477 796.005 296.111C802.483 297.746 808.175 298.563 813.079 298.563C823.13 298.563 828.155 295.657 828.155 289.845C828.155 287.665 827.489 285.909 826.157 284.577C824.825 283.185 822.524 281.641 819.255 279.945C815.985 278.189 811.626 276.161 806.177 273.86C798.366 270.591 792.614 267.563 788.921 264.778C785.288 261.993 782.624 258.814 780.929 255.242C779.294 251.609 778.477 247.159 778.477 241.892C778.477 232.87 781.958 225.907 788.921 221.003C795.944 216.038 805.874 213.556 818.71 213.556C830.94 213.556 842.838 216.22 854.402 221.548L846.047 241.528C840.961 239.349 836.208 237.562 831.788 236.17C827.368 234.777 822.857 234.081 818.256 234.081C810.082 234.081 805.995 236.291 805.995 240.711C805.995 243.193 807.297 245.343 809.9 247.159C812.564 248.976 818.347 251.67 827.247 255.242C835.179 258.451 840.991 261.448 844.685 264.233C848.378 267.019 851.103 270.228 852.858 273.86C854.614 277.493 855.492 281.822 855.492 286.848Z" fill="black"/>
<path d="M409.11 53.7451C398.515 53.7451 390.311 57.7412 384.498 65.7334C378.686 73.665 375.779 84.7451 375.779 98.9736C375.779 128.581 386.89 143.385 409.11 143.385C418.435 143.385 429.727 141.054 442.986 136.392V160.005C432.088 164.546 419.918 166.816 406.477 166.816C387.162 166.816 372.389 160.974 362.156 149.288C351.924 137.542 346.808 120.71 346.808 98.792C346.808 84.9873 349.32 72.9082 354.346 62.5547C359.371 52.1406 366.576 44.1787 375.961 38.6689C385.406 33.0986 396.456 30.3135 409.11 30.3135C422.007 30.3135 434.964 33.4316 447.981 39.668L438.899 62.5547C433.935 60.1934 428.939 58.1348 423.914 56.3789C418.889 54.623 413.954 53.7451 409.11 53.7451ZM496.843 165H469.143V23.6836H496.843V165ZM590.479 165L585.12 151.195H584.394C579.731 157.068 574.918 161.155 569.953 163.456C565.049 165.696 558.631 166.816 550.699 166.816C540.951 166.816 533.262 164.031 527.631 158.461C522.061 152.891 519.275 144.959 519.275 134.666C519.275 123.889 523.029 115.957 530.537 110.871C538.105 105.725 549.488 102.879 564.686 102.334L582.305 101.789V97.3389C582.305 87.0459 577.037 81.8994 566.502 81.8994C558.389 81.8994 548.853 84.3516 537.894 89.2559L528.721 70.5469C540.406 64.4316 553.363 61.374 567.592 61.374C581.215 61.374 591.659 64.3408 598.925 70.2744C606.19 76.208 609.823 85.2295 609.823 97.3389V165H590.479ZM582.305 117.955L571.588 118.318C563.535 118.561 557.541 120.014 553.605 122.678C549.67 125.342 547.702 129.398 547.702 134.848C547.702 142.658 552.183 146.563 561.144 146.563C567.562 146.563 572.678 144.717 576.492 141.023C580.367 137.33 582.305 132.426 582.305 126.311V117.955ZM709.271 134.848C709.271 145.262 705.639 153.193 698.373 158.643C691.168 164.092 680.36 166.816 665.95 166.816C658.563 166.816 652.267 166.302 647.06 165.272C641.853 164.304 636.979 162.851 632.438 160.913V138.026C637.584 140.448 643.366 142.477 649.784 144.111C656.263 145.746 661.954 146.563 666.858 146.563C676.909 146.563 681.935 143.657 681.935 137.845C681.935 135.665 681.269 133.909 679.937 132.577C678.604 131.185 676.304 129.641 673.034 127.945C669.765 126.189 665.405 124.161 659.956 121.86C652.146 118.591 646.394 115.563 642.7 112.778C639.067 109.993 636.403 106.814 634.708 103.242C633.073 99.6094 632.256 95.1592 632.256 89.8916C632.256 80.8701 635.737 73.9072 642.7 69.0029C649.724 64.0381 659.653 61.5557 672.489 61.5557C684.72 61.5557 696.617 64.2197 708.182 69.5479L699.826 89.5283C694.74 87.3486 689.987 85.5625 685.567 84.1699C681.147 82.7773 676.637 82.0811 672.035 82.0811C663.861 82.0811 659.774 84.291 659.774 88.7109C659.774 91.1934 661.076 93.3428 663.68 95.1592C666.344 96.9756 672.126 99.6699 681.026 103.242C688.958 106.451 694.771 109.448 698.464 112.233C702.157 115.019 704.882 118.228 706.638 121.86C708.394 125.493 709.271 129.822 709.271 134.848ZM801.727 134.848C801.727 145.262 798.094 153.193 790.828 158.643C783.623 164.092 772.815 166.816 758.405 166.816C751.019 166.816 744.722 166.302 739.515 165.272C734.308 164.304 729.434 162.851 724.893 160.913V138.026C730.039 140.448 735.821 142.477 742.239 144.111C748.718 145.746 754.409 146.563 759.313 146.563C769.364 146.563 774.39 143.657 774.39 137.845C774.39 135.665 773.724 133.909 772.392 132.577C771.06 131.185 768.759 129.641 765.489 127.945C762.22 126.189 757.86 124.161 752.411 121.86C744.601 118.591 738.849 115.563 735.155 112.778C731.522 109.993 728.858 106.814 727.163 103.242C725.528 99.6094 724.711 95.1592 724.711 89.8916C724.711 80.8701 728.192 73.9072 735.155 69.0029C742.179 64.0381 752.108 61.5557 764.944 61.5557C777.175 61.5557 789.072 64.2197 800.637 69.5479L792.281 89.5283C787.195 87.3486 782.442 85.5625 778.022 84.1699C773.603 82.7773 769.092 82.0811 764.49 82.0811C756.316 82.0811 752.229 84.291 752.229 88.7109C752.229 91.1934 753.531 93.3428 756.135 95.1592C758.799 96.9756 764.581 99.6699 773.481 103.242C781.413 106.451 787.226 109.448 790.919 112.233C794.612 115.019 797.337 118.228 799.093 121.86C800.849 125.493 801.727 129.822 801.727 134.848Z" fill="black"/>
<path d="M163 42H99.6071C79.0714 42.5926 38 56.2222 38 106C38 155.778 79.0714 169.407 99.6071 170H163" stroke="black" stroke-width="41"/>
<path d="M171 42H234.393C254.929 42.5926 296 56.2222 296 106C296 155.778 254.929 169.407 234.393 170H171" stroke="black" stroke-width="41"/>
<path d="M235 197H197.989H195.812L143.125 249.686V197H117V315L235 197Z" fill="black" stroke="black"/>
</g>
<defs>
<clipPath id="clip0">
<path d="M0 0H874V342H0V0Z" fill="white"/>
</clipPath>
</defs>
</svg>
